# AST/ASF file generated using VICON BodyLanguage
# -----------------------------------------------
:version 1.10
:name VICON
:units
  mass 1.0
  length 0.45
  angle deg
:documentation
   .ast/.asf automatically generated from VICON data using
   VICON BodyBuilder and BodyLanguage model FoxedUp or BRILLIANT.MOD
:root
   order TX TY TZ RX RY RZ
   axis XYZ
   position 0 0 0  
   orientation 0 0 0 
:bonedata
  begin
     id 1 
     name lhipjoint
     direction 0.643824 -0.71708 0.266994 
     length 2.52133 
     axis 0 0 0  XYZ
  end
  begin
     id 2 
     name lfemur
     direction 0.34202 -0.939693 0  
     length 7.51824  
     axis 0 0 20  XYZ
    dof rx ry rz
    limits (-160.0 20.0)
           (-70.0 70.0)
           (-60.0 70.0)
  end
  begin
     id 3 
     name ltibia
     direction 0.34202 -0.939693 0   
     length 7.3685   
     axis 0 0 20   XYZ
    dof rx
    limits (-10.0 170.0)
  end
  begin
     id 4 
     name lfoot
     direction 0.105419 -0.289636 0.951314   
     length 2.20972   
     axis -90 7.62852e-016 20   XYZ
    dof rx rz
    limits (-45.0 90.0)
           (-70.0 20.0)
  end
  begin
     id 5 
     name ltoes
     direction 1.53549e-011 -4.21833e-011 1   
     length 1.10139   
     axis -90 7.62852e-016 20   XYZ
    dof rx
    limits (-90.0 20.0)
  end
  begin
     id 6 
     name rhipjoint
     direction -0.608823 -0.743445 0.276811   
     length 2.43192  
     axis 0 0 0  XYZ 
  end
  begin
     id 7 
     name rfemur
     direction -0.34202 -0.939693 0   
     length 7.69715   
     axis 0 0 -20   XYZ
    dof rx ry rz
    limits (-160.0 20.0)
           (-70.0 70.0)
           (-70.0 60.0)
  end
  begin
     id 8 
     name rtibia
     direction -0.34202 -0.939693 0   
     length 7.44924   
     axis 0 0 -20   XYZ
    dof rx
    limits (-10.0 170.0)
 end
 begin
     id 9 
     name rfoot
     direction -0.103614 -0.284677 0.953007   
     length 2.22623  
     axis -90 -7.62852e-016 -20   XYZ
    dof rx rz
    limits (-45.0 90.0)
           (-20.0 70.0)
  end
  begin
     id 10 
     name rtoes
     direction -1.53537e-011 -4.22026e-011 1   
     length 1.11   
     axis -90 -7.62852e-016 -20   XYZ
    dof rx
    limits (-90.0 20.0)
  end
  begin
     id 11 
     name lowerback
     direction -0.0101212 0.99662 -0.0815298   
     length 2.08277   
     axis 0 0 0   XYZ
    dof rx ry rz
    limits (-20.0 45.0)
           (-30.0 30.0)
           (-30.0 30.0)
  end
  begin
     id 12 
     name upperback
     direction 0.024314 0.999591 -0.0150645   
     length 2.08524   
     axis 0 0 0   XYZ
    dof rx ry rz
    limits (-20.0 45.0)
           (-30.0 30.0)
           (-30.0 30.0)
  end
  begin
     id 13 
     name thorax
     direction 0.0285959 0.999323 0.0231357   
     length 2.09645   
     axis 0 0 0   XYZ
    dof rx ry rz
    limits (-20.0 45.0)
           (-30.0 30.0)
           (-30.0 30.0)
  end
  begin
     id 14 
     name lowerneck
     direction -0.065512 0.979301 0.191515   
     length 1.63798   
     axis 0 0 0   XYZ
    dof rx ry rz
    limits (-20.0 45.0)
           (-30.0 30.0)
           (-30.0 30.0)
  end
  begin
     id 15 
     name upperneck
     direction 0.0498479 0.98191 -0.182667   
     length 1.68731   
     axis 0 0 0   XYZ
    dof rx ry rz
    limits (-20.0 45.0)
           (-30.0 30.0)
           (-30.0 30.0)
  end
  begin
     id 16
     name head
     direction 0.0230358 0.996257 -0.0833175  
     length 1.69785  
     axis 0 0 0   XYZ
    dof rx ry rz
    limits (-20.0 45.0)
           (-30.0 30.0)
           (-30.0 30.0)
  end
  begin
     id 17 
     name lclavicle
     direction 0.967963 0.201165 -0.150269  
     length 3.63976  
     axis 0 0 0   XYZ
    dof ry rz
    limits (-20.0 10.0)
           (0.0 20.0)
  end
  begin
     id 18 
     name lhumerus
     direction 1 -4.48954e-011 -2.92837e-028   
     length 5.32462   
     axis 180 -30 -90   XYZ
    dof rx ry rz
    limits (-60.0 90.0)
           (-90.0 90.0)
           (-90.0 90.0)
  end
  begin
     id 19
     name lradius
     direction 1 -4.48958e-011 -6.39511e-027   
     length 3.48402   
     axis 180 -30 -90   XYZ
    dof rx
    limits (-10.0 170.0)
  end
  begin
     id 20
     name lwrist
     direction 1 -4.48975e-011 -1.1413e-026   
     length 1.74201   
     axis 6.88575e-015 90 90   XYZ
    dof ry
    limits (-180.0 0.0)
 end
  begin
     id 21 
     name lhand
     direction 1 -4.48899e-011 -2.28192e-026   
     length 0.572476   
     axis 1.45643e-014 90 90   XYZ
    dof rx rz
    limits (-90.0 90.0)
           (-45.0 45.0)
  end
  begin
     id 22 
     name lfingers
     direction 1 -4.49155e-011 -4.5684e-026   
     length 0.461545   
     axis 2.91283e-014 90 90   XYZ
    dof rx
    limits (0.0 90.0)
  end
  begin
     id 23
     name lthumb
     direction 0.707107 -6.34943e-011 0.707107   
     length 0.662688   
     axis -90 45 -2.25915e-014   XYZ
    dof rx rz
    limits (-45.0 45.0)
           (-45.0 45.0)
  end
  begin
     id 24 
     name rclavicle
     direction -0.964103 0.264019 -0.0282629   
     length 3.54491  
     axis 0 0 0   XYZ 
    dof ry rz
    limits (-10.0 20.0)
           (-20.0 0.0)
  end
  begin
     id 25 
     name rhumerus
     direction -1 -4.48964e-011 -2.45032e-027  
     length 5.33589   
     axis 180 30 90   XYZ
    dof rx ry rz
    limits (-90.0 60.0)
           (-90.0 90.0)
           (-90.0 90.0)
  end
  begin
     id 26 
     name rradius
     direction -1 -4.48987e-011 -1.55093e-027   
     length 3.64134   
     axis 180 30 90   XYZ
    dof rx
    limits (-10.0 170.0)
  end
  begin
     id 27 
     name rwrist
     direction -1 -4.4897e-011 -1.14128e-026   
     length 1.82067   
     axis 6.88575e-015 -90 -90   XYZ
    dof ry
    limits (-180.0 0.0)
  end
  begin
     id 28
     name rhand
     direction -1 -4.49021e-011 -2.28301e-026   
     length 0.734811   
     axis 1.45643e-014 -90 -90   XYZ
    dof rx rz
    limits (-90.0 90.0)
           (-45.0 45.0)
  end
  begin
     id 29
     name rfingers
     direction -1 -4.48862e-011 -4.56319e-026   
     length 0.592424   
     axis 2.91283e-014 -90 -90   XYZ
    dof rx
    limits (0.0 90.0)
  end
  begin
     id 30
     name rthumb
     direction -0.707107 -6.34978e-011 0.707107   
     length 0.850605   
     axis -90 -45 2.25915e-014   XYZ
    dof rx rz
    limits (-45.0 45.0)
           (-45.0 45.0)
  end
:hierarchy
  begin
    root lhipjoint rhipjoint lowerback
    lhipjoint lfemur
    lfemur ltibia
    ltibia lfoot
    lfoot ltoes
    rhipjoint rfemur
    rfemur rtibia
    rtibia rfoot
    rfoot rtoes
    lowerback upperback
    upperback thorax
    thorax lowerneck lclavicle rclavicle
    lowerneck upperneck
    upperneck head
    lclavicle lhumerus
    lhumerus lradius
    lradius lwrist
    lwrist lhand lthumb
    lhand lfingers
    rclavicle rhumerus
    rhumerus rradius
    rradius rwrist
    rwrist rhand rthumb
    rhand rfingers
  end

#!OML:ASF F:\VICON\USERDATA\INSTALL\rory3\rory3.ASF
:FULLY-SPECIFIED
:DEGREES
131
root -2.17196 17.5216 1.16194 14.2668 20.5417 0.939466
lowerback 12.6125 1.09236 0.377794
upperback 7.69929 1.58674 4.00865
thorax 0.903816 0.754405 3.78467
lowerneck -9.87957 4.06241 -7.8871
upperneck 41.0645 9.24323 -0.695765
head 16.0646 2.76754 2.59526
rclavicle 2.14687e-014 2.8625e-014
rhumerus -23.9725 1.21468 -70.2108
rradius 58.4099
rwrist 14.929
rhand -23.5003 3.75074
rfingers 7.12502
rthumb 2.95998 -26.2085
lclavicle 2.14687e-014 2.8625e-014
lhumerus -30.0471 7.48247 81.7554
lradius 51.4621
lwrist -4.16529
lhand -12.9602 24.1866
lfingers 7.12502
lthumb 13.1315 53.7532
rfemur -34.3938 6.1338 11.9256
rtibia 39.793
rfoot -14.0218 3.91299
rtoes 5.9671
lfemur -38.8168 -9.38513 0.192795
ltibia 25.2792
lfoot 2.80536 0.787164
ltoes -29.6272
132
root -2.05653 17.4935 1.15081 14.4029 19.3755 0.928124
lowerback 12.7511 1.17792 0.263274
upperback 7.76986 1.68126 3.78165
thorax 0.900428 0.799934 3.59835
lowerneck -9.54497 4.15847 -7.67416
upperneck 40.8136 9.36863 -1.02586
head 15.8857 2.82354 2.41057
rclavicle -1.27222e-014 1.43125e-014
rhumerus -23.6697 1.28079 -70.3035
rradius 58.464
rwrist 14.9452
rhand -23.4924 4.08708
rfingers 7.12502
rthumb 2.96757 -25.872
lclavicle -1.27222e-014 1.43125e-014
lhumerus -30.1712 7.57901 81.5042
lradius 51.2989
lwrist -4.0904
lhand -12.9734 24.2091
lfingers 7.12502
lthumb 13.1189 53.7764
rfemur -34.8662 6.40966 11.3847
rtibia 40.0866
rfoot -13.8355 4.71602
rtoes 5.8632
lfemur -38.4683 -10.1827 1.15814
ltibia 24.4892
lfoot 3.34178 0.0408235
ltoes -28.8754
133
root -1.93867 17.4636 1.14004 14.5226 18.3144 0.856618
lowerback 12.8463 1.20243 0.209255
upperback 7.86178 1.70106 3.5876
thorax 0.948647 0.809263 3.42268
lowerneck -9.37243 4.24104 -7.53639
upperneck 40.7021 9.48438 -1.24466
head 15.808 2.86596 2.29728
rclavicle 2.78299e-014 9.54166e-015
rhumerus -23.3263 1.45647 -70.3818
rradius 58.5304
rwrist 14.9945
rhand -23.1888 4.26313
rfingers 7.12502
rthumb 3.26074 -25.6917
lclavicle 2.78299e-014 9.54166e-015
lhumerus -30.2532 7.79568 81.1998
lradius 51.0433
lwrist -4.15555
lhand -12.8805 23.9063
lfingers 7.12502
lthumb 13.2084 53.4679
rfemur -35.3011 6.62319 10.9196
rtibia 40.351
rfoot -13.7377 5.41795
rtoes 5.02125
lfemur -38.0193 -10.7262 1.93586
ltibia 23.9834
lfoot 3.90557 -0.885774
ltoes -27.5603
134
root -1.81789 17.4362 1.13143 14.6909 17.2149 0.837354
lowerback 12.9197 1.23578 0.0729815
upperback 7.92654 1.7244 3.43803
thorax 0.976596 0.816876 3.33978
lowerneck -9.22713 4.32552 -7.74666
upperneck 40.6368 9.59852 -1.20703
head 15.7214 2.88836 2.35364
rclavicle -7.15625e-015 -2.22639e-014
rhumerus -23.0432 1.85814 -70.3061
rradius 58.6605
rwrist 14.8507
rhand -23.2658 4.16699
rfingers 7.12502
rthumb 3.18644 -25.7889
lclavicle -7.15625e-015 -2.22639e-014
lhumerus -30.4201 8.09315 81.0367
lradius 50.8397
lwrist -4.22379
lhand -12.727 24.0618
lfingers 7.12502
lthumb 13.3563 53.6137
rfemur -35.8052 6.90212 10.3615
rtibia 40.6577
rfoot -13.69 6.09414
rtoes 4.78479
lfemur -37.5364 -11.1915 2.56139
ltibia 23.5589
lfoot 4.21504 -1.31504
ltoes -26.6427
135
root -1.69635 17.4174 1.11793 14.8531 16.1894 0.823462
lowerback 13.0561 1.28827 0.0531365
upperback 8.01062 1.78571 3.26873
thorax 0.992934 0.848011 3.1649
lowerneck -9.27334 4.35181 -7.94733
upperneck 40.6738 9.64933 -1.13306
head 15.7337 2.88001 2.42709
rclavicle -4.45278e-014 -2.38542e-015
rhumerus -22.6545 2.007 -70.1762
rradius 58.7487
rwrist 14.6232
rhand -23.5439 4.15321
rfingers 7.12502
rthumb 2.91788 -25.8066
lclavicle -4.45278e-014 -2.38542e-015
lhumerus -30.1621 8.35832 80.9781
lradius 50.1272
lwrist -4.48172
lhand -12.7412 24.237
lfingers 7.12502
lthumb 13.3426 53.7898
rfemur -36.3183 7.23514 9.75384
rtibia 40.9541
rfoot -13.5579 6.72296
rtoes 4.08131
lfemur -37.1756 -11.1375 2.68549
ltibia 23.3778
lfoot 3.78278 -2.25426
ltoes -30.6027
136
root -1.57048 17.3813 1.10133 15.0035 15.2817 0.757351
lowerback 13.1647 1.31749 0.124583
upperback 8.15275 1.82527 3.12949
thorax 1.08901 0.870398 2.97442
lowerneck -9.37373 4.36378 -8.068
upperneck 40.6239 9.69504 -1.1619
head 15.7272 2.87111 2.44274
rclavicle -1.59028e-015 8.74653e-015
rhumerus -22.0717 1.99762 -70.013
rradius 58.7199
rwrist 14.4524
rhand -23.6432 4.25192
rfingers 7.12502
rthumb 2.82197 -25.7092
lclavicle -1.59028e-015 8.74653e-015
lhumerus -29.5866 8.72789 80.9811
lradius 49.0512
lwrist -4.82394
lhand -12.9434 23.9879
lfingers 7.12502
lthumb 13.1477 53.5534
rfemur -36.8525 7.63796 9.10633
rtibia 41.2626
rfoot -13.4469 7.33288
rtoes 3.31893
lfemur -36.741 -11.1382 2.86747
ltibia 23.41
lfoot 2.21295 -3.08225
ltoes -28.8487
137
root -1.44334 17.3433 1.08582 15.1955 14.4175 0.661935
lowerback 13.1929 1.30275 0.205727
upperback 8.33276 1.80663 3.01308
thorax 1.27115 0.863276 2.8121
lowerneck -9.61245 4.37182 -8.1409
upperneck 40.6241 9.77987 -1.27773
head 15.79 2.86593 2.42726
rclavicle -7.95139e-015 -1.66979e-014
rhumerus -21.4244 1.98618 -69.8631
rradius 58.6888
rwrist 14.259
rhand -23.5512 4.43828
rfingers 7.12502
rthumb 2.91082 -25.5216
lclavicle -7.95139e-015 -1.66979e-014
lhumerus -29.3287 8.87803 80.9829
lradius 48.6306
lwrist -4.77368
lhand -13.1914 23.5923
lfingers 7.12502
lthumb 12.9087 53.173
rfemur -37.3989 7.97344 8.51345
rtibia 41.5371
rfoot -13.3607 7.89694
rtoes 3.02278
lfemur -36.62 -10.7728 2.75038
ltibia 23.6659
lfoot 0.342841 -4.54203
ltoes -30.4631
